<svg version="1.1" xmlns="http://www.w3.org/2000/svg" viewBox="0 0 910 393" width="910" height="393" filter="invert(93%) hue-rotate(180deg)">
  <!-- svg-source:excalidraw -->
  
  <defs>
    <style>
      @font-face {
        font-family: "Virgil";
        src: url("https://excalidraw.com/Virgil.woff2");
      }
      @font-face {
        font-family: "Cascadia";
        src: url("https://excalidraw.com/Cascadia.woff2");
      }
    </style>
  </defs>
  <rect x="0" y="0" width="910" height="393" fill="#ffffff"></rect><g stroke-linecap="round" transform="translate(389.5 18.5) rotate(0 86 42.5)"><path d="M1 0.19 C63.94 1.14, 125.82 -1.34, 172.23 0.57 M0.74 0.42 C50.07 -0.15, 98.44 -1.17, 172.74 -0.29 M172.66 0.06 C170.75 25.18, 172.51 55.5, 172.09 84.08 M172.87 0.44 C172.63 26.66, 173.42 53.35, 171.91 85.31 M171.03 83.49 C127.82 87, 84.64 87.73, 0.61 84.4 M171.14 84.84 C117.46 83.34, 61.63 82.95, 0.07 85.1 M1.18 85.75 C0.35 59.9, 1.22 36.54, -0.06 -1.82 M0.24 84.42 C0.41 58.2, 0.04 30.68, -0.72 0.79" stroke="#e67700" stroke-width="2" fill="none"></path></g><g stroke-linecap="round" transform="translate(263.5 149.5) rotate(0 86 42.5)"><path d="M0.77 1.87 C38.25 -1.01, 75.73 0.46, 171.31 -0.11 M-0.28 0.66 C57.84 0.61, 116.21 -0.77, 171.31 -0.93 M170.8 0.81 C171.63 18.07, 170.77 38.22, 170.35 85.37 M172.87 -0.64 C173.57 27.08, 171.81 53.14, 171.2 85.85 M171.16 84.95 C132.03 85.21, 92.44 85.07, 0.67 84.06 M171.55 85.99 C124.49 83.85, 76.51 83.59, -0.41 85.38 M-1.45 85.69 C-1.6 67.77, -0.98 48.05, 1.51 -0.75 M-0.75 84.64 C0.69 59.28, 1.63 32.23, 0.6 -0.6" stroke="#343a40" stroke-width="2" fill="none"></path></g><g transform="translate(456 48.5) rotate(0 19.5 12.5)"><text x="19.5" y="18" font-family="Virgil, Segoe UI Emoji" font-size="20px" fill="#e67700" text-anchor="middle" style="white-space: pre;" direction="ltr">Top</text></g><g transform="translate(296.5 167) rotate(0 53 25)"><text x="53" y="18" font-family="Virgil, Segoe UI Emoji" font-size="20px" fill="#343a40" text-anchor="middle" style="white-space: pre;" direction="ltr">Saturating</text><text x="53" y="43" font-family="Virgil, Segoe UI Emoji" font-size="20px" fill="#343a40" text-anchor="middle" style="white-space: pre;" direction="ltr">Filter</text></g><g stroke-linecap="round" transform="translate(510.5 149) rotate(0 86 42.5)"><path d="M0.39 -1.26 C65.74 0.02, 132.92 2.86, 172.64 0.72 M-0.11 0.37 C51.31 -0.45, 101.86 0.35, 172.36 -0.63 M172.51 1.06 C174.16 34.58, 170.76 69.13, 171.22 85.58 M172.54 -0.26 C172.82 25.07, 172.68 47.83, 172.55 84.65 M172.36 86.89 C103.9 84.51, 38.12 84.06, -0.35 84.45 M172.71 85.73 C114.99 86.47, 57.89 86.19, -0.72 85.2 M1.69 84.21 C-0.97 59.04, -1.54 28.51, 0.55 1.02 M0.57 85.91 C0 62.97, 0.37 42.03, 0.86 0.65" stroke="#343a40" stroke-width="2" fill="none"></path></g><g transform="translate(538 166.5) rotate(0 58.5 25)"><text x="58.5" y="18" font-family="Virgil, Segoe UI Emoji" font-size="20px" fill="#343a40" text-anchor="middle" style="white-space: pre;" direction="ltr">Coefficients</text><text x="58.5" y="43" font-family="Virgil, Segoe UI Emoji" font-size="20px" fill="#343a40" text-anchor="middle" style="white-space: pre;" direction="ltr">loader</text></g><g stroke-linecap="round" transform="translate(130.5 297) rotate(0 86 42.5)"><path d="M0.56 -0.53 C52.92 -0.99, 104.02 -0.48, 173.78 -0.07 M0.51 0.87 C49.95 -0.49, 98.94 1.29, 171.83 -0.85 M173.17 0.2 C171.99 16.86, 173 35.29, 172.86 84.06 M172.53 -0.51 C172.31 30.35, 171.46 62.4, 172.23 85.33 M172.68 85.91 C108.95 85.41, 45.14 83.79, 1.45 85.4 M171.58 85.38 C105.18 85.42, 40.99 86.42, -0.88 85.18 M0.26 86.41 C-0.2 58.3, 1.02 27.9, 0.04 0.86 M-0.26 85.63 C0.56 61.36, 1.27 37.28, 0.81 -0.18" stroke="#343a40" stroke-width="2" fill="none"></path></g><g transform="translate(172.5 327) rotate(0 44 12.5)"><text x="44" y="18" font-family="Virgil, Segoe UI Emoji" font-size="20px" fill="#343a40" text-anchor="middle" style="white-space: pre;" direction="ltr">Fir Filter</text></g><g stroke-linecap="round" transform="translate(375.5 298) rotate(0 86 42.5)"><path d="M-0.25 -1.98 C50.12 0.49, 98.81 1.46, 172.09 0.21 M-0.89 -0.55 C40.46 1.3, 81.68 1.56, 171.69 -0.19 M170.73 -0.26 C173.3 21.89, 173.33 45.04, 170.14 85.44 M172.22 -0.26 C171.32 25.01, 171.35 52.8, 171.65 85.33 M171.19 86.73 C116.31 86.95, 58.39 85.32, -1.06 83.58 M171.75 85.93 C106.86 84.67, 41.21 83.59, 0.85 85.47 M0.42 83.72 C0.13 67.15, 2.37 50.89, 1.13 0.54 M-0.53 84.84 C-0.88 63.24, -0.25 41.12, -0.02 0.36" stroke="#343a40" stroke-width="2" fill="none"></path></g><g transform="translate(410 328) rotate(0 51.5 12.5)"><text x="51.5" y="18" font-family="Virgil, Segoe UI Emoji" font-size="20px" fill="#343a40" text-anchor="middle" style="white-space: pre;" direction="ltr">Saturator</text></g><g stroke-linecap="round"><g transform="translate(201.5 290.5) rotate(0 27.07209490466397 -27.327620486235247)"><path d="M-0.01 -1.06 C9.23 -9.88, 46.36 -45.03, 55.61 -53.69 M-1.47 1 C7.55 -8.13, 45.14 -46.34, 54.46 -55.65" stroke="#343a40" stroke-width="2" fill="none"></path></g><g transform="translate(201.5 290.5) rotate(0 27.07209490466397 -27.327620486235247)"><path d="M40.14 -29.05 C46.59 -37.91, 51.65 -44.96, 54.4 -54.6 M42.06 -27.87 C45.79 -36.72, 49.01 -43.96, 54.64 -54.8" stroke="#343a40" stroke-width="2" fill="none"></path></g><g transform="translate(201.5 290.5) rotate(0 27.07209490466397 -27.327620486235247)"><path d="M25.57 -43.5 C36.54 -47.76, 46.24 -50.23, 54.4 -54.6 M27.48 -42.31 C35.23 -47.22, 42.52 -50.43, 54.64 -54.8" stroke="#343a40" stroke-width="2" fill="none"></path></g></g><g stroke-linecap="round"><g transform="translate(459.7153477572642 295.5) rotate(0 -17.814210105415896 -29.780718855089503)"><path d="M0.32 1.03 C-5.63 -8.96, -29.24 -48.86, -34.94 -58.99 M-0.96 0.52 C-7.15 -9.86, -30.43 -50.78, -35.95 -60.59" stroke="#343a40" stroke-width="2" fill="none"></path></g><g transform="translate(459.7153477572642 295.5) rotate(0 -17.814210105415896 -29.780718855089503)"><path d="M-11.41 -41.33 C-19.91 -46.55, -29.52 -55.46, -34.51 -62.04 M-12.34 -40.53 C-20.76 -45.95, -27.2 -52.08, -36.36 -60.87" stroke="#343a40" stroke-width="2" fill="none"></path></g><g transform="translate(459.7153477572642 295.5) rotate(0 -17.814210105415896 -29.780718855089503)"><path d="M-29.26 -31.21 C-31.34 -40.16, -34.45 -52.76, -34.51 -62.04 M-30.2 -30.41 C-33.24 -39.02, -34.31 -48.19, -36.36 -60.87" stroke="#343a40" stroke-width="2" fill="none"></path></g></g><g stroke-linecap="round"><g transform="translate(589.5 144.5) rotate(0 -39.44732412570153 -18.809828958618453)"><path d="M-0.42 -0.08 C-13.52 -6.1, -66.34 -29.68, -79.67 -35.62 M1.55 -1.16 C-11.57 -7.61, -66.62 -32.02, -80.45 -37.54" stroke="#343a40" stroke-width="2" fill="none"></path></g><g transform="translate(589.5 144.5) rotate(0 -39.44732412570153 -18.809828958618453)"><path d="M-50.62 -35.4 C-56.11 -37.07, -62.56 -36.83, -79.76 -37.18 M-50.75 -36.78 C-56.09 -36.78, -63.65 -37.14, -79.89 -38.48" stroke="#343a40" stroke-width="2" fill="none"></path></g><g transform="translate(589.5 144.5) rotate(0 -39.44732412570153 -18.809828958618453)"><path d="M-58.65 -16.52 C-62.55 -22.1, -67.33 -25.79, -79.76 -37.18 M-58.79 -17.9 C-62.43 -21.77, -68.34 -26, -79.89 -38.48" stroke="#343a40" stroke-width="2" fill="none"></path></g></g><g stroke-linecap="round"><g transform="translate(345.5 137.5) rotate(0 21.57133513316512 -16.327524170535625)"><path d="M-0.87 -0.58 C6.58 -6.15, 36.65 -28.64, 44.02 -34.38 M0.87 1.73 C8.22 -3.59, 36.19 -27.04, 43.08 -33.04" stroke="#343a40" stroke-width="2" fill="none"></path></g><g transform="translate(345.5 137.5) rotate(0 21.57133513316512 -16.327524170535625)"><path d="M28.36 -8.85 C32.23 -15.81, 34.46 -19.49, 44.1 -34.96 M28.79 -8.01 C31.62 -13.75, 34.83 -20.6, 43.3 -32.63" stroke="#343a40" stroke-width="2" fill="none"></path></g><g transform="translate(345.5 137.5) rotate(0 21.57133513316512 -16.327524170535625)"><path d="M16.04 -23.34 C22.79 -26.69, 28.01 -26.85, 44.1 -34.96 M16.47 -22.5 C22.32 -24.78, 28.42 -28.22, 43.3 -32.63" stroke="#343a40" stroke-width="2" fill="none"></path></g></g><g transform="translate(618.5 314.5) rotate(0 82 25)"><text x="82" y="18" font-family="Virgil, Segoe UI Emoji" font-size="20px" fill="#5f3dc4" text-anchor="middle" style="white-space: pre;" direction="ltr">Satura "SXX.32"</text><text x="82" y="43" font-family="Virgil, Segoe UI Emoji" font-size="20px" fill="#5f3dc4" text-anchor="middle" style="white-space: pre;" direction="ltr">en "S16.16"</text></g><g transform="translate(10 185.5) rotate(0 86.5 37.5)"><text x="86.5" y="18" font-family="Virgil, Segoe UI Emoji" font-size="20px" fill="#5f3dc4" text-anchor="middle" style="white-space: pre;" direction="ltr">Filtra "S16.16" con</text><text x="86.5" y="43" font-family="Virgil, Segoe UI Emoji" font-size="20px" fill="#5f3dc4" text-anchor="middle" style="white-space: pre;" direction="ltr">Coeffs "S16.16" a</text><text x="86.5" y="68" font-family="Virgil, Segoe UI Emoji" font-size="20px" fill="#5f3dc4" text-anchor="middle" style="white-space: pre;" direction="ltr">"SXX.32"</text></g><g transform="translate(94 44) rotate(0 86.5 37.5)"><text x="86.5" y="18" font-family="Virgil, Segoe UI Emoji" font-size="20px" fill="#5f3dc4" text-anchor="middle" style="white-space: pre;" direction="ltr">Filtra "S16.16" con</text><text x="86.5" y="43" font-family="Virgil, Segoe UI Emoji" font-size="20px" fill="#5f3dc4" text-anchor="middle" style="white-space: pre;" direction="ltr">Coeffs "S16.16" a</text><text x="86.5" y="68" font-family="Virgil, Segoe UI Emoji" font-size="20px" fill="#5f3dc4" text-anchor="middle" style="white-space: pre;" direction="ltr">"S16.16"</text></g><g transform="translate(717 219) rotate(0 91.5 25)"><text x="91.5" y="18" font-family="Virgil, Segoe UI Emoji" font-size="20px" fill="#5f3dc4" text-anchor="middle" style="white-space: pre;" direction="ltr">Carga coeficientes</text><text x="91.5" y="43" font-family="Virgil, Segoe UI Emoji" font-size="20px" fill="#5f3dc4" text-anchor="middle" style="white-space: pre;" direction="ltr">"S16.16" de un .txt</text></g><g transform="translate(631.5 10) rotate(0 97 37.5)"><text x="97" y="18" font-family="Virgil, Segoe UI Emoji" font-size="20px" fill="#c92a2a" text-anchor="middle" style="white-space: pre;" direction="ltr">Filtra "S16.16" con</text><text x="97" y="43" font-family="Virgil, Segoe UI Emoji" font-size="20px" fill="#c92a2a" text-anchor="middle" style="white-space: pre;" direction="ltr">Coeffs precargados</text><text x="97" y="68" font-family="Virgil, Segoe UI Emoji" font-size="20px" fill="#c92a2a" text-anchor="middle" style="white-space: pre;" direction="ltr">"S16.16" a "S16.16"</text></g><g stroke-linecap="round"><g transform="translate(88.5 271.5) rotate(0 12.208419144075833 40.98033377304674)"><path d="M0.72 1.12 C-0.31 8.26, -10.65 29.84, -5.54 43.13 C-0.44 56.41, 25.06 74.2, 31.37 80.84" stroke="#5f3dc4" stroke-width="2.5" fill="none" stroke-dasharray="8 10"></path></g><g transform="translate(88.5 271.5) rotate(0 12.208419144075833 40.98033377304674)"><path d="M7.83 70.1 C16.78 73.25, 21.89 78.3, 32.93 78.9" stroke="#5f3dc4" stroke-width="2.5" fill="none"></path></g><g transform="translate(88.5 271.5) rotate(0 12.208419144075833 40.98033377304674)"><path d="M20.1 56.07 C24.77 64.22, 25.57 74.19, 32.93 78.9" stroke="#5f3dc4" stroke-width="2.5" fill="none"></path></g></g><g stroke-linecap="round"><g transform="translate(671.5 302.5) rotate(0 -60.976815680414404 -9.07587897728422)"><path d="M-1.11 -0.81 C-11.4 -4.35, -41.51 -22.78, -61.47 -22 C-81.43 -21.22, -110.89 -0.38, -120.85 3.87" stroke="#5f3dc4" stroke-width="2.5" fill="none" stroke-dasharray="8 10"></path></g><g transform="translate(671.5 302.5) rotate(0 -60.976815680414404 -9.07587897728422)"><path d="M-102.34 -17.74 C-105.88 -9.6, -114.19 -2.92, -121.62 4.67" stroke="#5f3dc4" stroke-width="2.5" fill="none"></path></g><g transform="translate(671.5 302.5) rotate(0 -60.976815680414404 -9.07587897728422)"><path d="M-92.53 0.29 C-99.14 2.5, -110.62 3.35, -121.62 4.67" stroke="#5f3dc4" stroke-width="2.5" fill="none"></path></g></g><g stroke-linecap="round"><g transform="translate(804.5 217.5) rotate(0 -60.458082465082384 -25.79867199286818)"><path d="M-0.82 -0.72 C-6.07 -5.26, -10.49 -18.52, -30.37 -26.87 C-50.25 -35.23, -105.2 -47.2, -120.1 -50.87" stroke="#5f3dc4" stroke-width="2.5" fill="none" stroke-dasharray="8 10"></path></g><g transform="translate(804.5 217.5) rotate(0 -60.458082465082384 -25.79867199286818)"><path d="M-91.51 -54.18 C-101.85 -55.04, -115.27 -53.03, -118.32 -52.83" stroke="#5f3dc4" stroke-width="2.5" fill="none"></path></g><g transform="translate(804.5 217.5) rotate(0 -60.458082465082384 -25.79867199286818)"><path d="M-96.21 -34.2 C-104.75 -42.92, -116.32 -48.79, -118.32 -52.83" stroke="#5f3dc4" stroke-width="2.5" fill="none"></path></g></g><g stroke-linecap="round"><g transform="translate(213.5 131.5) rotate(0 19.78683190980479 25.26372050419451)"><path d="M-1.18 0.17 C-1.2 5.51, -7.91 24.35, -0.46 32.71 C7 41.08, 36.04 47.31, 43.55 50.35" stroke="#5f3dc4" stroke-width="2.5" fill="none" stroke-dasharray="8 10"></path></g><g transform="translate(213.5 131.5) rotate(0 19.78683190980479 25.26372050419451)"><path d="M19.53 52.36 C26.21 50.65, 31.41 52.04, 43.52 51.74" stroke="#5f3dc4" stroke-width="2.5" fill="none"></path></g><g transform="translate(213.5 131.5) rotate(0 19.78683190980479 25.26372050419451)"><path d="M24.51 36.48 C29.93 39.04, 33.76 44.76, 43.52 51.74" stroke="#5f3dc4" stroke-width="2.5" fill="none"></path></g></g><g stroke-linecap="round"><g transform="translate(623.5 40.5) rotate(0 -26.41031371727587 4.546553377062082)"><path d="M0.69 -0.45 C-8.36 1.34, -44.21 7.78, -53.51 9.54" stroke="#c92a2a" stroke-width="2.5" fill="none" stroke-dasharray="8 10"></path></g><g transform="translate(623.5 40.5) rotate(0 -26.41031371727587 4.546553377062082)"><path d="M-30.58 -3.56 C-39.43 -1.02, -47.13 6.97, -52.17 7.97" stroke="#c92a2a" stroke-width="2.5" fill="none"></path></g><g transform="translate(623.5 40.5) rotate(0 -26.41031371727587 4.546553377062082)"><path d="M-27.18 14.92 C-37.09 10.7, -46.05 11.9, -52.17 7.97" stroke="#c92a2a" stroke-width="2.5" fill="none"></path></g></g></svg>